<svg
  xmlns="http://www.w3.org/2000/svg"
  xml:space="preserve"
  viewBox="0 0 700 800"
  fill="#fa8e00"
>
  <path
    transform="translate(349 398.5)"
    d="M-200-350.446c0-27.609 22.344-50 50-50s50 22.391 50 50v50h200v-50c0-27.609 22.344-50 50-50s50 22.391 50 50v50h75c41.406 0 75 33.578 75 75v75h-700v-75c0-41.422 33.578-75 75-75h75zm550 675c0 41.406-33.594 75-75 75l-50.68.13V3.91s-3.628-29.59-33.112-29.907c-29.484-.317-111.895 57.973-123.446 136.9-11.552 78.927-4.612 89.582-6.207 137.995-1.596 48.413 19.307 62.726 38.445 72.207 19.138 9.482 45.001 3.448 45.001 3.448v75.333l-218.301.559V228.902s70.848-17.33 73.3-72.79C2.452 100.652-29.826-11.01-35.824-19.635c-5.997-8.626-21.539-10.67-27 3.398-5.462 14.069-2.128 151.906-2.128 151.906h-16.706S-97.089-9.33-100-19.635c-2.91-10.306-19.746-10.792-23.882 0-4.137 10.792-18.393 155.304-18.393 155.304h-17.396s1.973-137.348-2.196-151.906c-4.169-14.558-19.209-12.268-24.187-5.34-4.98 6.927-41.124 132.424-38.446 181.087 2.678 48.663 71 69.392 71 69.392v170.652H-275c-41.422 0-75-33.594-75-75v-425h700z"
  />
</svg>