<?xml version="1.0" standalone="no"?>
<svg version="1.0" xmlns="http://www.w3.org/2000/svg"
 width="1426.000000pt" height="247.000000pt" viewBox="0 0 1426.000000 247.000000"
 preserveAspectRatio="xMidYMid meet">

<g transform="translate(0.000000,247.000000) scale(0.100000,-0.100000)"
fill="currentColor" stroke="none">
<path d="M12055 2464 c-11 -3 -39 -10 -62 -16 l-42 -10 24 -32 c43 -56 141
-303 127 -318 -4 -3 -41 -19 -83 -35 -182 -70 -276 -172 -287 -310 -4 -52 13
-183 24 -183 1 0 35 18 76 40 56 30 254 110 272 110 2 0 11 -21 21 -47 58
-155 131 -254 220 -301 44 -24 61 -27 145 -26 52 0 108 6 123 12 l28 12 -21
30 c-49 69 -141 305 -124 319 5 4 42 20 82 35 218 84 319 231 282 412 -18 87
-19 87 -71 55 -49 -31 -266 -121 -291 -121 -9 0 -19 12 -23 28 -3 15 -24 64
-45 109 -47 100 -120 182 -190 212 -49 21 -146 34 -185 25z"/>
<path d="M1060 935 l0 -905 234 0 235 0 3 408 c3 400 3 408 26 457 29 63 48
84 97 106 79 37 189 14 233 -49 47 -65 52 -119 52 -534 l0 -388 236 0 236 0
-4 468 c-4 448 -5 470 -26 533 -58 175 -225 280 -448 282 -133 1 -218 -26
-321 -100 -41 -29 -76 -53 -77 -53 -2 0 -6 75 -8 168 -6 184 -19 242 -77 325
-63 92 -179 151 -353 181 l-38 7 0 -906z"/>
<path d="M225 1690 l-220 -88 0 -663 c0 -724 1 -732 57 -810 36 -50 122 -93
221 -110 73 -12 408 -7 455 7 21 6 22 10 22 149 l0 143 -114 4 c-97 2 -117 6
-136 23 -47 41 -50 66 -50 365 l0 280 150 0 150 0 0 150 0 150 -150 0 -150 0
0 245 c0 135 -3 245 -7 244 -5 -1 -107 -41 -228 -89z"/>
<path d="M3232 1329 c-293 -27 -484 -191 -549 -474 -23 -105 -24 -321 0 -417
39 -159 138 -291 267 -355 137 -69 338 -97 526 -74 294 37 474 175 517 399 l7
32 -219 0 -219 0 -7 -32 c-30 -143 -218 -203 -355 -114 -52 34 -92 114 -98
198 l-5 68 456 0 456 0 -5 108 c-8 160 -28 255 -74 350 -49 103 -136 195 -228
241 -117 59 -295 85 -470 70z m173 -250 c81 -23 155 -133 155 -231 l0 -28
-231 0 -231 0 7 43 c10 69 61 163 100 187 65 40 128 49 200 29z"/>
<path d="M8484 1329 c-304 -23 -520 -176 -600 -423 -36 -110 -44 -297 -19
-412 53 -243 212 -402 465 -464 110 -27 318 -37 430 -21 162 24 314 100 400
199 55 63 114 189 136 287 23 103 23 276 0 365 -21 85 -75 194 -123 249 -139
163 -390 244 -689 220z m191 -278 c107 -50 155 -170 155 -391 -1 -246 -82
-387 -229 -398 -122 -9 -193 44 -237 180 -23 72 -27 100 -27 208 -1 186 30
296 101 363 59 56 163 72 237 38z"/>
<path d="M6130 1302 c-36 -9 -85 -29 -110 -44 -44 -26 -117 -97 -152 -148
l-17 -25 -1 50 c0 28 -3 74 -6 103 l-7 52 -230 0 -230 0 6 -137 c4 -75 7 -358
7 -630 l0 -493 235 0 235 0 0 390 c0 240 4 408 11 439 26 121 110 178 237 161
57 -8 92 -36 122 -96 l25 -49 3 -423 3 -422 235 0 234 0 0 418 0 418 26 52
c36 72 93 106 179 105 92 -1 143 -34 171 -110 10 -30 13 -130 14 -460 l0 -423
236 0 235 0 -3 467 c-4 407 -7 476 -22 528 -31 110 -101 192 -206 245 -71 36
-137 50 -241 50 -117 0 -199 -22 -285 -78 -55 -36 -144 -124 -144 -143 0 -19
-18 -8 -24 15 -9 37 -94 125 -147 152 -109 55 -262 69 -389 36z"/>
<path d="M10318 1304 c-104 -25 -192 -85 -258 -177 l-28 -37 -7 100 -7 100
-231 0 -230 0 6 -142 c4 -79 7 -362 7 -630 l0 -488 234 0 235 0 3 423 c3 389
4 425 22 457 44 83 92 112 182 112 92 -1 142 -33 170 -109 10 -30 13 -130 14
-460 l0 -423 235 0 235 0 0 373 c0 204 5 401 10 437 17 118 91 185 201 184 76
-1 127 -28 159 -85 l25 -44 3 -432 3 -433 234 0 235 0 0 395 c0 218 -5 439
-11 492 -17 159 -57 238 -160 314 -80 61 -147 82 -275 87 -179 7 -283 -33
-400 -154 l-72 -73 -17 39 c-66 146 -303 226 -517 174z"/>
<path d="M4990 1284 c-106 -28 -182 -92 -237 -196 l-28 -53 -5 125 -5 125
-229 3 -229 2 6 -121 c4 -67 7 -351 7 -631 l0 -508 234 0 235 0 3 328 c3 319
4 328 27 379 51 114 149 167 309 167 l92 0 0 198 0 198 -62 -1 c-35 0 -88 -7
-118 -15z"/>
<path d="M12866 1278 c4 -7 88 -143 186 -301 l179 -288 -45 -72 c-25 -40 -119
-187 -210 -327 l-165 -255 232 -3 c127 -1 236 0 242 2 6 2 56 106 111 230 54
124 101 226 104 226 3 0 49 -102 102 -227 l97 -228 275 -3 c152 -1 276 0 276
3 0 2 -77 123 -171 267 -95 145 -189 291 -211 325 l-39 62 191 296 c104 163
190 299 190 301 0 2 -107 4 -237 4 l-238 0 -79 -186 c-44 -102 -83 -187 -87
-190 -6 -3 -57 111 -135 303 l-29 73 -273 0 c-216 0 -272 -3 -266 -12z"/>
<path d="M12110 636 l0 -606 235 0 235 0 0 535 0 535 -93 0 c-131 0 -245 37
-339 112 l-38 30 0 -606z"/>
</g>
</svg>
