<svg version="1.0" xmlns="http://www.w3.org/2000/svg" viewBox="0 0 293 330" fill="#009a3e">
  <path d="M131 1.1C78.4 3.3 21.8 17.8 6 33.1c-3.3 3.2-4 4.6-4 7.8 0 7.9 8.6 13.6 22.5 14.8l7.5.6 6.1 11c8.9 16 21.2 34 28.7 41.8l6.5 6.9-.7 12.6-.8 12.5-8.3 12.2c-19.7 29-35.6 61.1-42.9 86.5-4.4 15.6-5 20.3-5.1 35.7 0 15 0 15.1 3.3 21.7 2.1 4.2 5 8.2 8 10.8 21.8 19.2 81.8 26.6 149.7 18.4 24.5-2.9 47.8-8.5 58.5-13.9 8.7-4.4 8-1.1 9.6-49.2l1.5-42.8 3.4-11.5c13.8-45.5 10.2-78.4-10.3-93-3-2.2-7.5-4.7-10.1-5.6-2.5-1-4.7-1.9-4.9-2-.2-.1 1.8-2.9 4.5-6.2 4.9-6.2 15.9-23.1 23.1-35.8l4.1-7.1 7.6-.7C281.1 57 292 50.7 292 42.1c0-3.5-.7-4.9-4-8.5-13.6-14.8-69.3-30.1-116.5-32.1-6.6-.3-14.7-.7-18-.8-3.3-.2-13.4 0-22.5.4zm55 18.4c24.7 3.1 60.1 11.6 79 19l6.5 2.6-8.5-.6c-4.7-.2-60.5-.8-124-1.2l-115.5-.7 7.5-2.3c27.8-8.7 64.7-16 92.5-18.3 14.7-1.2 47.1-.4 62.5 1.5zm15 34.6c18.9.6 34.7 1.2 34.9 1.5.7.7-9.6 21.1-14.2 28.2-2.4 3.7-6.8 9.7-9.8 13.4l-5.4 6.8H175c-17.3 0-45.9-.3-63.5-.7l-32.1-.6-9.1-12.1c-9.5-12.7-22-33.3-20.8-34.4 1.1-1.2 49-2.9 84-3 18.2-.1 48.5.3 67.5.9zm-42.7 66.5 35.7.7v16.1c0 50-12.1 75.3-43.4 90.6-10 4.9-18 7-26.6 7-8.1 0-12.5-1.2-18-4.9-12.8-8.6-15.5-21.5-16.7-81l-.6-30.4 16.9.6c9.3.4 33 1 52.7 1.3zm65.2 2.8c7.8 3.3 13.9 11.5 16.6 22.6 1.8 7.5 1.5 25.4-.6 37.5-3.5 20.2-12.3 46-22.7 67-18.9 37.8-43.6 55.6-86.2 62.2-16.1 2.5-51 2.5-62.6 0-30.6-6.6-44-23.4-40.1-50.4 2.8-20.1 13.8-44.8 34.6-77.9 9.5-15.2 12.1-18.7 12.6-17 .3 1.1.9 7.8 1.3 14.8 2.1 37.8 10.5 56.1 28.8 62.5 12.6 4.4 36.2.8 54.3-8.2 31.5-15.6 45-42 48.6-94.8 1.5-22.6.9-21.1 7.1-20.3 2.8.4 6.6 1.3 8.3 2z"/><path d="M72.9 258c-1.5 1.4-15.9 39-15.9 41.6 0 .6.6 1.7 1.3 2.3.8.6 15.3 2.2 33.5 3.6 35.5 2.8 41.8 3 42.7 1.5 1.3-2 12.5-41.3 12.5-43.7 0-1.3-.6-2.6-1.4-2.9-.7-.3-17-1.3-36.2-2.2-31-1.5-34.9-1.6-36.5-.2zM162.5 270.4c-6.3 2.8-11.5 11-11.5 18.1 0 12.9 14.9 15.6 23.4 4.2 3-4.1 3.4-14.1.7-18.5-1.9-3-5.6-5.3-8.4-5.2-.7.1-2.5.7-4.2 1.4z"/>
</svg>