  <svg fill="currentColor" viewBox="0 0 700 600">
    <path
      fill="#ffcc55"
      transform="matrix(.5 -.46 .46 .5 110.74 142.24)"
      d="M100.4 112.3.51 491.7c-1.375 5.625.162 11.6 4.287 15.6 4.127 4.125 10.13 5.744 15.63 4.119l379.1-105.1C395.3 231.4 276.5 114.1 100.4 112.3zM127.1 416c-17.62 0-32-14.38-32-31.1 0-17.62 14.39-32 32.01-32 17.63 0 32 14.38 32 31.1.89 17.6-13.51 32-32.01 32zm48-144.9c-17.63 0-32-14.38-32-32 0-17.62 14.38-31.1 32-31.1 17.62 0 32 14.38 32 31.1.9 18.5-13.5 32-32 32zm96.9 96c-17.62 0-32-14.38-32-31.1 0-17.62 14.38-32 32-32 17.63 0 32 14.38 32 32 0 17.6-14.4 31.1-32 31.1zM158.9.14c-16.13-1.5-31.25 8.502-35.38 24.12L108.7 80.52c187.6 5.5 314.5 130.6 322.5 316.1l56.88-15.75c15.75-4.375 25.5-19.62 23.63-35.87C490.9 165.1 340.8 17.39 158.9.14z"
    />
    <path
      fill="#fa8e00"
      transform="matrix(1.21 0 0 1.21 350.7 369.59)"
      d="M128 186.87 125.833-116.6c3.5-6.9 12.767-22.132 13.267-23.432l116-46.4c15.8-6.3 32.9 5.3 32.9 22.3v270.8c0 9.8-6 18.6-15.1 22.3zm-400.91-315.7s118.985-48.142 119.549-48.409c.564-.266 25.426 44.452 28.926 51.352L-128 135.67l-127.09 50.9c-15.76 5.4-32.91-5.3-32.91-22.3v-270.8c0-9.8 5.975-19.5 15.09-22.3zM96 188.17l-192.9-54.9 5.493-201.15c2.448 3.58 12.052 22.247 44.85 80.742 32.799 58.494 55.04 50.482 87.809 2.688C74.02-32.244 92.197-64.192 92.5-64.603c.303-.41 3.5 252.772 3.5 252.772z"
    />
  </svg>